:SAMPLES-PER-SECOND 30
:FULLY-SPECIFIED
:DEGREES
536
root  -17.1479 40.3188 30.2942 -13.0264 73.2885 -11.1748
RightUpLeg  6.2413 -9.05301 -1.43777
RightLeg  10.5249 -9.39634 4.41474
RightFoot  -11.5592 -0.0761881 1.43582
RightToes  -5.8209e-011 0 -3.6325e-017
Spine  6.3355 1.75602 12.4905
Spine1  7.63005 4.04014 -6.30655
HEad  64.9451 13.7661 -152.897
LeftShoulder1  8.41998 -12.0649 -47.1917
LeftArm  -3.73909 25.0738 -17.474
LeftForeArm  22.1152 -13.1866 -5.61014
LeftHand  -0.244104 0.0205437 5.32207
RightShoulder  6.04117 9.62039 39.8986
RightArm  10.5961 -4.26157 32.251
RightForeArm  2.1311 25.4501 5.3314
RightHand  -0.449408 -0.928503 -11.6488
LeftUpLeg  -21.6186 14.5374 -3.37864
LeftLeg  25.1093 0.630771 1.10026
LeftFoot  -1.96678 0.0263638 -0.173823
LeftToes  1.76439e-010 -1.07097e-011 2.32476e-011
537
root  -15.9596 40.2621 30.8224 -13.2014 73.6954 -11.5327
RightUpLeg  9.12521 -8.73139 -1.30592
RightLeg  8.68155 -9.83502 4.56233
RightFoot  -12.1809 -0.0705023 1.6107
RightToes  -5.8209e-011 0 -3.6325e-017
Spine  5.85973 1.88112 12.6498
Spine1  8.17482 4.32233 -7.27145
HEad  59.6602 15.7729 -163.169
LeftShoulder1  8.34131 -12.105 -46.6179
LeftArm  -5.52834 27.5673 -17.4806
LeftForeArm  21.6884 -11.2695 -5.5423
LeftHand  -0.244104 0.0205437 5.32207
RightShoulder  6.05601 9.63833 39.946
RightArm  10.0183 -3.689 31.8163
RightForeArm  2.80196 26.8977 5.64231
RightHand  -0.440684 -1.01391 -11.6358
LeftUpLeg  -20.172 17.0962 -4.73599
LeftLeg  11.2843 3.76567 -1.43055
LeftFoot  -1.4952 0.0318389 -0.260325
LeftToes  1.76439e-010 -1.07097e-011 2.32476e-011
538
root  -14.6895 40.058 31.3131 -13.973 73.8761 -12.2681
RightUpLeg  11.8228 -8.6552 -1.36512
RightLeg  8.092 -9.74156 4.74097
RightFoot  -13.5378 -0.0363093 2.76824
RightToes  -5.8209e-011 0 -3.6325e-017
Spine  5.51412 1.91654 12.74
Spine1  8.69008 4.51921 -7.89382
HEad  61.3458 14.3259 -163.353
LeftShoulder1  8.24611 -12.0466 -46.2493
LeftArm  -6.62731 29.8984 -17.7725
LeftForeArm  21.0377 -9.48889 -5.32007
LeftHand  -0.244104 0.0205437 5.32207
RightShoulder  6.07525 9.66168 40.0071
RightArm  9.94662 -3.0284 31.5517
RightForeArm  2.77817 27.0445 5.67849
RightHand  -0.445823 -0.941008 -11.5871
LeftUpLeg  -16.7518 3.23595 0.653966
LeftLeg  -1.90171 23.9799 -8.22296
LeftFoot  -1.93047 0.0289939 -0.250832
LeftToes  1.76439e-010 -1.07097e-011 2.32476e-011
539
root  -13.297 39.7019 31.7831 -16.858 74.3509 -15.0196
RightUpLeg  14.1618 -9.12842 -1.32071
RightLeg  9.20063 -9.24435 4.93072
RightFoot  -15.2466 0.0448571 4.38048
RightToes  -5.8209e-011 0 -3.6325e-017
Spine  4.91591 1.85578 12.7949
Spine1  9.03818 4.28838 -7.60084
HEad  61.9686 11.8767 -163.318
LeftShoulder1  8.1526 -11.9058 -46.1385
LeftArm  -7.15178 31.6926 -18.334
LeftForeArm  20.7594 -7.71667 -5.02196
LeftHand  -0.244104 0.0205437 5.32207
RightShoulder  6.057 9.62495 39.9977
RightArm  10.1179 -2.48986 31.4955
RightForeArm  2.52254 26.0193 5.4527
RightHand  -0.465245 -0.742947 -11.5982
LeftUpLeg  -16.3303 2.79529 0.1994
LeftLeg  -7.039 28.7918 -10.1944
LeftFoot  -3.90437 0.137878 -1.73879
LeftToes  1.76439e-010 -1.07097e-011 2.32476e-011
540
root  -11.8113 39.3801 32.2522 -20.2408 75.3101 -18.2693
RightUpLeg  16.4855 -10.5218 -1.62635
RightLeg  10.7957 -8.22381 4.95493
RightFoot  -16.0237 0.113304 5.42997
RightToes  -5.8209e-011 0 -3.6325e-017
Spine  3.98928 1.78449 12.3704
Spine1  9.61472 4.01387 -6.90543
HEad  61.7566 9.17529 -163.476
LeftShoulder1  8.07997 -11.8133 -45.999
LeftArm  -7.40012 32.8568 -19.0831
LeftForeArm  20.8007 -6.06981 -4.73008
LeftHand  -0.244104 0.0205437 5.32207
RightShoulder  6.03022 9.54027 40.0873
RightArm  9.96629 -2.7003 31.5223
RightForeArm  2.06229 24.3233 5.09099
RightHand  -0.49422 -0.514905 -11.7666
LeftUpLeg  -15.9649 2.92122 -0.304925
LeftLeg  -6.81471 31.7869 -10.7479
LeftFoot  -4.51806 0.121771 -1.60201
LeftToes  1.76439e-010 -1.07097e-011 2.32476e-011
541
root  -10.2175 39.1202 32.7196 -21.2593 76.0237 -18.9374
RightUpLeg  19.1652 -14.3979 -3.91349
RightLeg  12.9787 -3.72406 4.67002
RightFoot  -16.0717 0.194771 7.26429
RightToes  -5.8209e-011 0 -3.6325e-017
Spine  2.83493 2.08148 11.1886
Spine1  10.4907 4.21246 -6.38541
HEad  61.6976 7.42169 -162.813
LeftShoulder1  8.00121 -11.7384 -45.7666
LeftArm  -7.64466 33.6891 -19.7067
LeftForeArm  20.7764 -5.11313 -4.54123
LeftHand  -0.244104 0.0205437 5.32207
RightShoulder  6.11006 9.54145 40.66
RightArm  9.14834 -3.72411 31.3223
RightForeArm  1.58811 21.8381 4.97807
RightHand  -0.554292 -0.0912796 -12.1737
LeftUpLeg  -15.4056 3.54899 -1.23996
LeftLeg  -3.48088 32.9375 -9.87226
LeftFoot  -2.6942 -0.219443 2.96335
LeftToes  1.76439e-010 -1.07097e-011 2.32476e-011
542
root  -8.56285 38.919 33.1577 -17.704 76.6431 -14.7679
RightUpLeg  21.5328 -21.0396 -9.1504
RightLeg  17.1358 5.32363 4.1481
RightFoot  -15.1613 0.283372 11.792
RightToes  -5.8209e-011 0 -3.6325e-017
Spine  1.77879 2.574 8.76938
Spine1  11.1466 4.56388 -5.9879
HEad  61.427 6.31281 -161.92
LeftShoulder1  7.91023 -11.5724 -45.743
LeftArm  -7.79977 34.2248 -19.8752
LeftForeArm  20.4101 -5.01883 -4.46889
LeftHand  -0.244104 0.0205437 5.32207
RightShoulder  6.30457 9.63749 41.7288
RightArm  5.76744 -4.92535 31.0068
RightForeArm  4.00963 17.7204 5.90568
RightHand  -0.648628 0.587902 -12.6777
LeftUpLeg  -15.928 4.79515 -3.45595
LeftLeg  3.24518 32.1142 -6.22883
LeftFoot  -0.659741 -0.980199 10.5007
LeftToes  1.76439e-010 -1.07097e-011 2.32476e-011
543
root  -6.96623 38.8391 33.5284 -11.0749 78.0558 -7.47878
RightUpLeg  20.6243 -22.5783 -12.8824
RightLeg  24.9524 9.04018 3.97626
RightFoot  -10.7064 -0.190572 17.1277
RightToes  -5.8209e-011 0 -3.6325e-017
Spine  1.41817 2.60764 5.63596
Spine1  10.9417 4.46891 -5.74899
HEad  60.5956 5.64589 -161.829
LeftShoulder1  7.86689 -11.3967 -46.0364
LeftArm  -7.92495 33.8316 -19.6916
LeftForeArm  20.1269 -5.20812 -4.46429
LeftHand  -0.244104 0.0205437 5.32207
RightShoulder  6.44928 9.67839 42.6133
RightArm  -0.836597 -6.08753 31.396
RightForeArm  10.2971 12.2322 7.06628
RightHand  -0.699587 0.990431 -12.8345
LeftUpLeg  -16.2951 8.64721 -7.57501
LeftLeg  9.36091 26.9842 -1.7542
LeftFoot  -0.117331 -1.62424 16.505
LeftToes  1.76439e-010 -1.07097e-011 2.32476e-011
544
root  -5.52663 38.8498 33.8053 -3.35339 80.044 0.795593
RightUpLeg  15.0373 -17.6877 -12.8941
RightLeg  36.4242 5.55343 4.12642
RightFoot  -0.165845 -1.77993 18.5146
RightToes  -5.8209e-011 0 -3.6325e-017
Spine  2.07962 2.21335 3.41268
Spine1  10.0673 4.14583 -6.22039
HEad  59.9479 5.66987 -162.868
LeftShoulder1  7.93407 -11.4111 -46.3947
LeftArm  -8.22945 31.9216 -19.698
LeftForeArm  20.3473 -5.35074 -4.49066
LeftHand  -0.244104 0.0205437 5.32207
RightShoulder  6.45911 9.67043 42.7093
RightArm  -6.2605 -7.55783 32.9926
RightForeArm  15.3653 7.69848 6.76613
RightHand  -0.632228 0.609974 -12.3044
LeftUpLeg  -15.7084 13.1055 -11.4671
LeftLeg  13.2127 20.6628 1.27738
LeftFoot  -1.83903 -1.48979 17.8401
LeftToes  1.76439e-010 -1.07097e-011 2.32476e-011
545
root  -4.3033 38.8069 34.0042 6.37299 81.4303 11.0822
RightUpLeg  7.32069 -12.7102 -12.4921
RightLeg  48.636 3.67863 4.17893
RightFoot  12.4855 -3.13067 15.2184
RightToes  -5.8209e-011 0 -3.6325e-017
Spine  3.45705 2.02575 2.15446
Spine1  9.63785 4.15021 -7.58365
HEad  60.1025 6.08168 -164.881
LeftShoulder1  8.11112 -11.6293 -46.7565
LeftArm  -8.75181 28.6962 -20.2249
LeftForeArm  21.0077 -5.98569 -4.6122
LeftHand  -0.244104 0.0205437 5.32207
RightShoulder  6.46116 9.79282 42.3053
RightArm  -7.8809 -9.13539 34.8086
RightForeArm  17.069 5.72047 6.10254
RightHand  -0.51345 -0.145631 -11.3995
LeftUpLeg  -14.251 15.4167 -13.5125
LeftLeg  15.6637 17.1419 2.21601
LeftFoot  -4.6682 -0.936947 16.4022
LeftToes  1.76439e-010 -1.07097e-011 2.32476e-011
546
root  -3.15926 38.7644 34.1653 16.0302 82.2724 21.3365
RightUpLeg  -0.153713 -8.03732 -12.0948
RightLeg  58.2899 2.57617 4.01003
RightFoot  18.7269 -2.9212 11.2657
RightToes  -5.8209e-011 0 -3.6325e-017
Spine  4.74209 1.99137 1.20611
Spine1  9.97102 4.154 -8.67235
HEad  60.4909 6.1043 -167.621
LeftShoulder1  8.33905 -11.8605 -47.3613
LeftArm  -9.31144 24.8243 -21.1011
LeftForeArm  22.1319 -7.70576 -4.86395
LeftHand  -0.244104 0.0205437 5.32207
RightShoulder  6.55363 10.0415 42.1092
RightArm  -6.68579 -10.2032 35.4316
RightForeArm  17.9627 5.93219 6.38898
RightHand  -0.457566 -0.477847 -10.8217
LeftUpLeg  -12.1495 14.2368 -13.7883
LeftLeg  17.3173 17.4379 1.86497
LeftFoot  -7.05261 -0.531385 15.2959
LeftToes  1.76439e-010 -1.07097e-011 2.32476e-011
